{"title":"Star Wars Episode 4 A New Hope 1977 -1080p BluRay Hardcoded subs","uid":8616096,"size":7966591892,"categoryP":"video","categoryS":"hd___movies","magnet":"?xt=urn:btih:48f1e308477a34105f5b91ceff2a49c995ce15d6&amp;dn=Star+Wars+Episode+4+A+New+Hope+1977+-1080p+BluRay+Hardcoded+subs&amp;tr=udp%3A%2F%2Ftracker.openbittorrent.com%3A80&amp;tr=udp%3A%2F%2Fopen.demonii.com%3A1337&amp;tr=udp%3A%2F%2Ftracker.coppersurfer.tk%3A6969&amp;tr=udp%3A%2F%2Fexodus.desync.com%3A6969","seeders":4,"leechers":1,"uploader":"100.XY","files":-1,"time":1372255674,"description":"Part IV in George Lucas' epic, Star Wars: A New Hope opens with a Rebel ship being boarded by the tyrannical Darth Vader. The plot then follows the life of a simple farm boy, Luke Skywalker, as he and his newly met allies (Han Solo, Chewbacca, Obi-Wan Kenobi, C-3PO, R2-D2) attempt to rescue a Rebel leader, Princess Leia, from the clutches of the Empire. The conclusion is culminated as the Rebels, including Skywalker and flying ace Wedge Antilles make an attack on the Empire's most powerful and ominous weapon, the Death Star.\n\n* * * MediaInspector for Mac - Version 2.0.1, build 900\n* * * Â©2012 by Diego Massanti\n* * * MediaInfo Lib by Jerome Martinez\n* * * Raw File Report for Star.Wars.Episode.4.A.New.Hope.1977.-1080p BluRay Hardcoded subs-PT [TUGA].mkv\n\nGeneral\nComplete name : /Volumes/My book 2/BluRay Movies/Star Wars Boxset BluRay /Star Wars Episode IV - A New Hope/Star.Wars.Episode.4.A.New.Hope.1977.-1080p BluRay Hardcoded subs-PT [TUGA].mkv\nFormat : Matroska\nFile size : 7.42 GiB\nDuration : 2h 4mn\nOverall bit rate : 8 515 Kbps\nEncoded date : UTC 2013-06-17 22:59:56\nWriting library : WonderShare Matroska Muxer\n\nVideo\nID : 1\nFormat : AVC\nFormat/Info : Advanced Video Codec\nFormat profile : &lt;a class=&quot;__cf_email__&quot; href=&quot;/cdn-cgi/l/email-protection&quot; data-cfemail=&quot;adefccdec8c1c4c3c8ede198839d&quot;&gt;[email&amp;#160;protected]&lt;/a&gt;&lt;script cf-hash='f9e31' type=&quot;text/javascript&quot;&gt;\n/* &lt;![CDATA[ */!function(){try{var t=&quot;currentScript&quot;in document?document.currentScript:function(){for(var t=document.getElementsByTagName(&quot;script&quot;),e=t.length;e--;)if(t[e].getAttribute(&quot;cf-hash&quot;))return t[e]}();if(t&amp;&amp;t.previousSibling){var e,r,n,i,c=t.previousSibling,a=c.getAttribute(&quot;data-cfemail&quot;);if(a){for(e=&quot;&quot;,r=parseInt(a.substr(0,2),16),n=2;a.length-n;n+=2)i=parseInt(a.substr(n,2),16)^r,e+=String.fromCharCode(i);e=document.createTextNode(e),c.parentNode.replaceChild(e,c)}}}catch(u){}}();/* ]]&gt; */&lt;/script&gt;\nFormat settings, CABAC : No\nFormat settings, ReFrames : 1 frame\nFormat settings, GOP : M=1, N=25\nCodec ID : V_MPEG4/ISO/AVC\nDuration : 2h 4mn\nBit rate : 8 186 Kbps\nWidth : 1 920 pixels\nHeight : 1 080 pixels\nDisplay aspect ratio : 16:9\nFrame rate : 23.976 fps\nOriginal frame rate : 23.000 fps\nColor space : YUV\nChroma subsampling : 4:2:0\nBit depth : 8 bits\nScan type : Progressive\nBits/(Pixel*Frame) : 0.165\nStream size : 7.13 GiB (96%)\n\nAudio\nID : 2\nFormat : AC-3\nFormat/Info : Audio Coding 3\nMode extension : CM (complete main)\nCodec ID : A_AC3\nDuration : 2h 4mn\nBit rate mode : Constant\nBit rate : 160 Kbps\nChannel(s) : 2 channels\nChannel positions : Front: L R\nSampling rate : 44.1 KHz\nBit depth : 16 bits\nCompression mode : Lossy\nDelay relative to video : 4ms\nStream size : 143 MiB (2%)","torrent":{"xt":"urn:btih:48f1e308477a34105f5b91ceff2a49c995ce15d6","amp;dn":"Star+Wars+Episode+4+A+New+Hope+1977+-1080p+BluRay+Hardcoded+subs","amp;tr":["udp%3A%2F%2Ftracker.openbittorrent.com%3A80","udp%3A%2F%2Fopen.demonii.com%3A1337","udp%3A%2F%2Ftracker.coppersurfer.tk%3A6969","udp%3A%2F%2Fexodus.desync.com%3A6969"],"infoHash":"48f1e308477a34105f5b91ceff2a49c995ce15d6","infoHashBuffer":{"type":"Buffer","data":[72,241,227,8,71,122,52,16,95,91,145,206,255,42,73,201,149,206,21,214]},"announce":[],"urlList":[]}}